HIERARCHY
ROOT Hips
{
	OFFSET 0.00000 0.00000 0.00000
	CHANNELS 6 Xposition Yposition Zposition Zrotation Yrotation Xrotation 
	JOINT LHipJoint
	{
		OFFSET 0 0 0
		CHANNELS 3 Zrotation Yrotation Xrotation
		JOINT LeftHip
		{
			OFFSET 1.58895 -1.83665 0.71753
			CHANNELS 3 Zrotation Yrotation Xrotation
			JOINT LeftKnee
			{
				OFFSET 2.50528 -6.88321 0.00000
				CHANNELS 3 Zrotation Yrotation Xrotation
				JOINT LeftAnkle
				{
					OFFSET 2.63244 -7.23257 0.00000
					CHANNELS 3 Zrotation Yrotation Xrotation
					JOINT LeftToe
					{
						OFFSET 0.23691 -0.65090 1.72750
						CHANNELS 3 Zrotation Yrotation Xrotation
						End Site
						{
							OFFSET 0.00000 -0.00000 0.92561
						}
					}
				}
			}
		}
	}
	JOINT RHipJoint
	{
		OFFSET 0 0 0
		CHANNELS 3 Zrotation Yrotation Xrotation
		JOINT RightHip
		{
			OFFSET -1.51435 -1.83665 0.71753
			CHANNELS 3 Zrotation Yrotation Xrotation
			JOINT RightKnee
			{
				OFFSET -2.54551 -6.99375 0.00000
				CHANNELS 3 Zrotation Yrotation Xrotation
				JOINT RightAnkle
				{
					OFFSET -2.66027 -7.30903 0.00000
					CHANNELS 3 Zrotation Yrotation Xrotation
					JOINT RightToe
					{
						OFFSET -0.22981 -0.63138 2.03959
						CHANNELS 3 Zrotation Yrotation Xrotation
						End Site
						{
							OFFSET -0.00000 -0.00000 1.07060
						}
					}
				}
			}
		}
	}
	JOINT lowerback
	{
		OFFSET 0 0 0
		CHANNELS 3 Zrotation Yrotation Xrotation
		JOINT Chest
		{
			OFFSET -0.02651 1.86275 -0.11152
			CHANNELS 3 Zrotation Yrotation Xrotation
			JOINT Chest2
			{
				OFFSET 0.01019 1.86224 0.04087
				CHANNELS 3 Zrotation Yrotation Xrotation
				JOINT lowerneck
				{
					OFFSET 0 0 0
					CHANNELS 3 Zrotation Yrotation Xrotation
					JOINT Neck
					{
						OFFSET -0.01926 1.80512 0.08867
						CHANNELS 3 Zrotation Yrotation Xrotation
						JOINT Head
						{
							OFFSET 0.05516 1.76451 -0.38475
							CHANNELS 3 Zrotation Yrotation Xrotation
							End Site
							{
								OFFSET 0.01592 1.82587 -0.14001
							}
						}
					}
				}
				JOINT LeftCollar
				{
					OFFSET 0 0 0
					CHANNELS 3 Zrotation Yrotation Xrotation
					JOINT LeftShoulder
					{
						OFFSET 3.47116 1.51376 0.14491
CHANNELS 3 Zrotation Xrotation Yrotation
						JOINT LeftElbow
						{
OFFSET 0 -4.780950 0.000000
CHANNELS 3 Zrotation Xrotation Yrotation
							JOINT LeftWrist
							{
OFFSET 0 -3.586150 -0.000000
CHANNELS 3 Zrotation Xrotation Yrotation
								JOINT lhand
								{
									OFFSET 0 0 0
CHANNELS 3 Zrotation Xrotation Yrotation
									JOINT LFingers
									{
OFFSET 0 -0.659810 0.000000
CHANNELS 3 Zrotation Xrotation Yrotation
										End Site
										{
OFFSET 0 -0.531960 0.000000
										}
									}
								}
								JOINT LThumb
								{
OFFSET 0 0.000000 0.000000
CHANNELS 3 Zrotation Xrotation Yrotation
									End Site
									{
OFFSET 0 -0.540080 0.540080
									}
								}
							}
						}
					}
				}
				JOINT RightCollar
				{
					OFFSET 0 0 0
					CHANNELS 3 Zrotation Yrotation Xrotation
					JOINT RightShoulder
					{
						OFFSET -3.31725 1.61216 0.35156
CHANNELS 3 Zrotation Xrotation Yrotation
						JOINT RightElbow
						{
OFFSET 0 -4.489130 0.000000
CHANNELS 3 Zrotation Xrotation Yrotation
							JOINT RightWrist
							{
OFFSET 0 -3.705100 0.000000
CHANNELS 3 Zrotation Xrotation Yrotation
								JOINT rhand
								{
									OFFSET 0 0 0
CHANNELS 3 Zrotation Xrotation Yrotation
									JOINT RFingers
									{
OFFSET 0 -0.449140 0.000000
CHANNELS 3 Zrotation Xrotation Yrotation
										End Site
										{
OFFSET 0 -0.362110 0.000000
										}
									}
								}
								JOINT RThumb
								{
OFFSET 0 0.000000 0.000000
CHANNELS 3 Zrotation Xrotation Yrotation
									End Site
									{
OFFSET 0 -0.367630 0.367630
									}
								}
							}
						}
					}
				}
			}
		}
	}
}
MOTION
Frames: 9
Frame Time: 0.008333333333333333
-1.040999 18.693910 6.019679 -1.209739 0.955616 0.937012 0.000000 0.000000 0.000000 -12.742627 -9.323019 -3.144239 1.653919 8.104640 23.032326 1.042824 5.373213 -21.940510 8.654003 -16.579836 -54.885811 0.000000 0.000000 0.000000 0.000000 0.000000 0.000000 0.000000 0.000000 0.000000 0.000000 0.000000 0.000000 0.000000 0.000000 0.000000 -1.836209 0.985819 17.365642 2.693307 1.054811 10.883789 3.719988 0.348461 1.840229 1.301428 0.919753 -1.316937 -2.768477 1.280159 3.103442 -1.057115 0.613478 1.207009 0.000000 0.000000 0.000000 0.440842 -6.103738 -58.867969 28.454113 -39.530909 10.411420 -13.185359 13.780774 11.826019 0.000000 0.000000 0.000000 -7.125000 0.000000 0.000000 -27.209315 18.310460 -19.631476 0.000000 0.000000 0.000000 -3.042815 6.333444 40.781464 -35.790140 -45.368199 -15.373016 4.980616 18.869172 44.819997 0.000000 0.000000 0.000000 7.125000 0.000000 0.000000 57.391144 66.012000 -33.622466
-1.032537 18.705667 6.005425 -1.188022 1.209094 1.474865 0.000000 0.000000 0.000000 -12.689007 -9.666839 -3.770812 1.653508 8.103608 23.029140 1.031124 5.328599 -21.810208 8.603769 -16.545839 -54.709549 0.000000 0.000000 0.000000 0.000000 0.000000 0.000000 0.000000 0.000000 0.000000 0.000000 0.000000 0.000000 0.000000 0.000000 0.000000 -1.414845 0.913289 17.637946 2.762680 1.019106 10.861398 3.557590 0.352011 1.681602 1.401373 1.033087 -1.446941 -2.842093 1.410098 2.101920 -1.092991 0.683043 0.920152 0.000000 0.000000 0.000000 0.301647 -6.017578 -58.929855 28.760650 -39.807156 10.607160 -12.890120 14.137177 11.807032 0.000000 0.000000 0.000000 -7.125000 0.000000 0.000000 -27.034630 18.340927 -19.448163 0.000000 0.000000 0.000000 -3.013973 6.417787 40.694483 -36.203821 -45.652758 -15.668114 4.170699 19.657823 44.911183 0.000000 0.000000 0.000000 7.125000 0.000000 0.000000 56.875889 66.310942 -33.593539
-1.021768 18.715046 5.993181 -1.081532 1.525175 1.865761 0.000000 0.000000 0.000000 -12.741340 -9.899807 -4.295697 1.656746 8.111226 23.052437 1.016262 5.169499 -21.578199 8.599313 -16.542833 -54.693824 0.000000 0.000000 0.000000 0.000000 0.000000 0.000000 0.000000 0.000000 0.000000 0.000000 0.000000 0.000000 0.000000 0.000000 0.000000 -1.051714 0.844228 18.019162 2.868881 0.983464 10.857164 3.467476 0.351314 1.486693 1.432399 1.105194 -1.552925 -2.797346 1.484801 1.120021 -1.082051 0.725683 0.634753 0.000000 0.000000 0.000000 0.008939 -5.934445 -58.862419 28.957092 -39.982481 10.733107 -12.473152 14.602583 12.116229 0.000000 0.000000 0.000000 -7.125000 0.000000 0.000000 -26.726171 18.076446 -19.344857 0.000000 0.000000 0.000000 -2.942975 6.558272 40.412373 -36.601242 -45.922221 -15.952919 2.616223 20.636751 45.096279 0.000000 0.000000 0.000000 7.125000 0.000000 0.000000 55.904632 66.896298 -33.552458
-1.007365 18.726234 5.983347 -1.027851 1.911929 2.341245 0.000000 0.000000 0.000000 -12.714231 -10.155739 -4.885401 1.654849 8.106828 23.038941 1.003810 4.954007 -21.333637 8.529123 -16.494967 -54.446902 0.000000 0.000000 0.000000 0.000000 0.000000 0.000000 0.000000 0.000000 0.000000 0.000000 0.000000 0.000000 0.000000 0.000000 0.000000 -0.633571 0.773498 18.277686 3.091836 0.959198 10.816578 3.469324 0.354838 1.314359 1.490605 1.125414 -1.716851 -2.959364 1.493722 0.227882 -1.142290 0.733124 0.389888 0.000000 0.000000 0.000000 -0.356626 -5.863892 -58.949277 29.147441 -40.151280 10.855635 -12.243928 15.033117 12.288680 0.000000 0.000000 0.000000 -7.125000 0.000000 0.000000 -26.556480 17.928121 -19.288570 0.000000 0.000000 0.000000 -2.938726 6.742168 39.738266 -37.099394 -46.254121 -16.311880 3.107763 20.803075 45.105537 0.000000 0.000000 0.000000 7.125000 0.000000 0.000000 56.339697 66.749084 -33.708135
-0.991660 18.737330 5.975549 -0.812798 2.318278 2.805848 0.000000 0.000000 0.000000 -12.889519 -10.532476 -5.395438 1.647154 8.088817 22.984118 0.993302 4.820643 -21.156979 8.480465 -16.461537 -54.275382 0.000000 0.000000 0.000000 0.000000 0.000000 0.000000 0.000000 0.000000 0.000000 0.000000 0.000000 0.000000 0.000000 0.000000 0.000000 -0.206983 0.670485 18.452438 3.194830 0.894158 10.828243 3.346945 0.340608 1.245851 1.586440 1.149103 -2.045011 -3.004416 1.505101 -0.558059 -1.172419 0.740690 0.204962 0.000000 0.000000 0.000000 -0.566079 -5.941249 -59.112018 29.216542 -40.212357 10.900234 -11.936825 15.166692 12.538870 0.000000 0.000000 0.000000 -7.125000 0.000000 0.000000 -26.326349 17.710986 -19.221121 0.000000 0.000000 0.000000 -2.710619 6.851868 39.057268 -37.622010 -46.596082 -16.690518 2.810426 21.415867 45.341385 0.000000 0.000000 0.000000 7.125000 0.000000 0.000000 56.539235 66.975961 -34.124231
-0.971173 18.747019 5.970211 -0.600733 2.747662 3.138350 0.000000 0.000000 0.000000 -13.115717 -10.869911 -5.765304 1.638723 8.069180 22.924288 0.970413 4.745962 -20.902342 8.471898 -16.455583 -54.245123 0.000000 0.000000 0.000000 0.000000 0.000000 0.000000 0.000000 0.000000 0.000000 0.000000 0.000000 0.000000 0.000000 0.000000 0.000000 0.209546 0.554508 18.824892 3.388629 0.819667 10.787814 3.327964 0.319342 1.020136 1.688438 1.139640 -2.234243 -3.175240 1.470635 -1.424631 -1.245327 0.726309 -0.027642 0.000000 0.000000 0.000000 -0.838728 -5.820327 -59.221660 29.355513 -40.334535 10.990071 -11.534654 15.425453 12.940882 0.000000 0.000000 0.000000 -7.125000 0.000000 0.000000 -26.013586 17.357220 -19.164189 0.000000 0.000000 0.000000 -2.574504 7.153179 38.350330 -38.356519 -47.064961 -17.226316 2.380163 22.022580 45.924641 0.000000 0.000000 0.000000 7.125000 0.000000 0.000000 57.320268 67.438141 -35.262373
-0.949059 18.757529 5.965421 -0.422593 3.207074 3.553335 0.000000 0.000000 0.000000 -13.277632 -11.154154 -6.295082 1.637874 8.067151 22.918089 0.938578 4.683397 -20.569413 8.512246 -16.483399 -54.387497 0.000000 0.000000 0.000000 0.000000 0.000000 0.000000 0.000000 0.000000 0.000000 0.000000 0.000000 0.000000 0.000000 0.000000 0.000000 0.694486 0.384885 18.948571 3.603790 0.683303 10.788387 3.305939 0.267815 0.969719 1.797356 1.188620 -2.511893 -3.369397 1.513464 -2.193543 -1.326559 0.749572 -0.213791 0.000000 0.000000 0.000000 -1.081785 -5.776883 -59.292294 29.518999 -40.477473 11.096040 -11.030112 15.506448 13.344608 0.000000 0.000000 0.000000 -7.125000 0.000000 0.000000 -25.639932 17.003036 -19.045685 0.000000 0.000000 0.000000 -2.538803 7.543141 37.737278 -39.418818 -47.721160 -18.008237 1.312738 22.967234 45.681655 0.000000 0.000000 0.000000 7.125000 0.000000 0.000000 55.939554 67.640147 -34.437801
-0.924289 18.765557 5.961103 -0.159435 3.599318 3.869128 0.000000 0.000000 0.000000 -13.546960 -11.269289 -6.699770 1.625787 8.038657 22.831611 0.914206 4.514523 -20.237768 8.507293 -16.479955 -54.370074 0.000000 0.000000 0.000000 0.000000 0.000000 0.000000 0.000000 0.000000 0.000000 0.000000 0.000000 0.000000 0.000000 0.000000 0.000000 1.098326 0.241218 19.153894 3.831106 0.573147 10.782274 3.339209 0.225171 0.868367 1.683243 1.274283 -2.534723 -3.399170 1.610156 -3.107960 -1.321051 0.805014 -0.489339 0.000000 0.000000 0.000000 -1.345394 -5.661058 -59.374175 29.644594 -40.586832 11.177689 -10.637314 15.371863 13.839629 0.000000 0.000000 0.000000 -7.125000 0.000000 0.000000 -25.322086 16.559863 -19.028742 0.000000 0.000000 0.000000 -2.525418 7.823054 37.109209 -40.274331 -48.230998 -18.643730 0.412645 23.612255 45.796222 0.000000 0.000000 0.000000 7.125000 0.000000 0.000000 55.409036 67.992340 -34.433637
-0.898585 18.775284 5.954545 0.370724 3.809268 4.102310 0.000000 0.000000 0.000000 -14.167886 -11.426108 -6.874869 1.601112 7.980504 22.655013 0.899451 4.506308 -20.091922 8.518604 -16.487724 -54.409917 0.000000 0.000000 0.000000 0.000000 0.000000 0.000000 0.000000 0.000000 0.000000 0.000000 0.000000 0.000000 0.000000 0.000000 0.000000 1.217139 0.182923 19.527748 3.978748 0.535918 10.735951 3.436883 0.209279 0.631864 1.728316 1.316595 -2.611265 -3.584791 1.644031 -3.883369 -1.392905 0.827166 -0.713737 0.000000 0.000000 0.000000 -1.616543 -5.522158 -59.277019 29.627014 -40.571537 11.166239 -10.256372 15.338877 14.915773 0.000000 0.000000 0.000000 -7.125000 0.000000 0.000000 -24.926433 15.579539 -19.258515 0.000000 0.000000 0.000000 -2.485358 8.280448 36.487024 -41.365495 -48.857410 -19.461699 -0.595866 24.516435 46.136891 0.000000 0.000000 0.000000 7.125000 0.000000 0.000000 55.257943 68.511253 -34.901290
